<svg width="24" height="24" viewBox="0 0 24 24" fill="none" xmlns="http://www.w3.org/2000/svg">
<path d="M4.5 19V19.5H5H8.5V20.5H5C4.17614 20.5 3.5 19.8239 3.5 19V15.5H4.5V19ZM5 4.5H4.5V5V8.5H3.5V5C3.5 4.17614 4.17614 3.5 5 3.5H8.5V4.5H5ZM19.5 5V4.5H19H15.5V3.5H19C19.8239 3.5 20.5 4.17614 20.5 5V8.5H19.5V5ZM19 19.5H19.5V19V15.5H20.5V19C20.5 19.8239 19.8239 20.5 19 20.5H15.5V19.5H19ZM9.5 12C9.5 10.6161 10.6161 9.5 12 9.5C13.3839 9.5 14.5 10.6161 14.5 12C14.5 13.3839 13.3839 14.5 12 14.5C10.6161 14.5 9.5 13.3839 9.5 12Z" fill="#1888A0" stroke="#1888A0"/>
</svg>
