<svg width="26" height="29" viewBox="0 0 26 29" fill="none" xmlns="http://www.w3.org/2000/svg">
<g filter="url(#filter0_d)">
<path d="M5.5 19V19.5H6H9.5V20.5H6C5.17614 20.5 4.5 19.8239 4.5 19V15.5H5.5V19ZM6 4.5H5.5V5V8.5H4.5V5C4.5 4.17614 5.17614 3.5 6 3.5H9.5V4.5H6ZM20.5 5V4.5H20H16.5V3.5H20C20.8239 3.5 21.5 4.17614 21.5 5V8.5H20.5V5ZM20 19.5H20.5V19V15.5H21.5V19C21.5 19.8239 20.8239 20.5 20 20.5H16.5V19.5H20ZM10.5 12C10.5 10.6161 11.6161 9.5 13 9.5C14.3839 9.5 15.5 10.6161 15.5 12C15.5 13.3839 14.3839 14.5 13 14.5C11.6161 14.5 10.5 13.3839 10.5 12Z" fill="#1888A0" stroke="#1888A0"/>
</g>
<defs>
<filter id="filter0_d" x="-3" y="0" width="32" height="32" filterUnits="userSpaceOnUse" color-interpolation-filters="sRGB">
<feFlood flood-opacity="0" result="BackgroundImageFix"/>
<feColorMatrix in="SourceAlpha" type="matrix" values="0 0 0 0 0 0 0 0 0 0 0 0 0 0 0 0 0 0 127 0" result="hardAlpha"/>
<feOffset dy="4"/>
<feGaussianBlur stdDeviation="2"/>
<feComposite in2="hardAlpha" operator="out"/>
<feColorMatrix type="matrix" values="0 0 0 0 0 0 0 0 0 0 0 0 0 0 0 0 0 0 0.25 0"/>
<feBlend mode="normal" in2="BackgroundImageFix" result="effect1_dropShadow"/>
<feBlend mode="normal" in="SourceGraphic" in2="effect1_dropShadow" result="shape"/>
</filter>
</defs>
</svg>
