<svg width="39" height="50" viewBox="0 0 39 50" fill="none" xmlns="http://www.w3.org/2000/svg">
<g clip-path="url(#clip0)">
<path d="M12.4294 49.9998C27.0255 49.9998 38.8579 38.807 38.8579 24.9999C38.8579 11.1928 27.0255 0 12.4294 0C-2.1666 0 -13.999 11.1928 -13.999 24.9999C-13.999 38.807 -2.1666 49.9998 12.4294 49.9998Z" fill="#F9D6CD"/>
<path d="M-0.788536 34.4966C1.01852 34.4966 2.82567 34.4966 4.63262 34.4966L4.66235 34.847L2.01289 38.6463L-0.832825 34.8094L-0.788433 34.4966H-0.788536Z" fill="#B3B3B3"/>
<path d="M-0.753612 33.5436L-0.800482 35.6866L-4.64429 37.6749V44.0814C-4.2652 44.3852 -3.87745 44.6796 -3.48071 44.9628H1.82617H8.29589V37.6747L4.7237 35.5745L4.52766 33.4318L-0.753612 33.5436Z" fill="#F0BA7D"/>
<path d="M-2.52972 27.2941C-2.52972 27.2941 -2.75013 26.8358 -3.34188 27.063C-3.93353 27.2899 -3.31535 29.5535 -3.08926 29.8691C-2.86317 30.185 -2.49916 29.9842 -2.36681 29.9719C-2.17841 31.3213 -2.16158 32.2514 -1.59047 32.8203C-1.04972 33.3593 0.188911 34.4571 0.840953 34.84C1.2826 34.9281 1.61244 34.9799 1.92246 34.9955C2.23248 34.9799 2.56211 34.9281 3.00396 34.84C3.65632 34.4571 4.89464 33.3593 5.4357 32.8203C6.00681 32.2514 6.02332 31.3213 6.21173 29.9719C6.34439 29.9842 6.70809 30.1848 6.93418 29.8691C7.16037 29.5535 7.77907 27.2899 7.18711 27.063C6.59546 26.836 6.37474 27.2941 6.37474 27.2941C6.37474 27.2941 6.95988 25.5166 5.91988 23.7669C5.20744 22.5676 3.5824 21.9457 1.92246 21.9C0.262725 21.9456 -1.36253 22.5676 -2.07496 23.7669C-3.11466 25.5166 -2.52972 27.2941 -2.52972 27.2941Z" fill="#FED298"/>
<path d="M-2.68538 36.3173L-1.76492 35.9746L-1.02327 35.3441L1.59574 37.2232H2.24809L4.86823 35.3417L6.53034 36.3176L9.41828 40.9614L7.73367 49.6066C2.51279 48.7212 -2.17591 46.3854 -5.85051 43.0555L-6.46002 41.3321L-2.68538 36.3173Z" fill="#15BDB2"/>
<path d="M5.69016 35.7302L4.6327 34.4968L2.24835 37.2229L4.29491 39.3741L5.69005 35.7304V35.7302H5.69016Z" fill="#21D0C3"/>
<path d="M-1.84711 35.7094L-0.788309 34.4978L1.59605 37.2239L-0.531868 39.3527L-1.84711 35.7094Z" fill="#21D0C3"/>
<path d="M-1.84703 35.7085L-8.85536 37.8646C-9.14049 37.9521 -9.31951 38.1814 -9.37742 38.4594L-9.48572 38.9784C-6.89747 42.602 -3.33127 45.5482 0.85467 47.4801L-1.84672 35.7086H-1.84703V35.7085Z" fill="white"/>
<path d="M-1.84709 35.7085L-2.64996 35.9418L-4.77673 39.3742L-2.09217 39.4538L-3.74045 40.3414L-0.681855 46.7114C-0.180125 46.9832 0.332239 47.2391 0.8541 47.4802L-1.84729 35.7087L-1.84709 35.7085Z" fill="#EEF3F7"/>
<path d="M5.69014 35.7302L12.701 37.8644C12.9864 37.9513 13.1651 38.1813 13.2227 38.4593L15.5731 49.8229C14.542 49.9388 13.4929 49.9999 12.4287 49.9999C11.6326 49.9999 10.8449 49.9645 10.0667 49.8995L9.56245 48.2816C9.5513 48.2453 9.51403 48.2227 9.47418 48.2273C9.43433 48.2319 9.40429 48.2619 9.40212 48.2999L9.34142 49.8294C7.06185 49.5783 4.87044 49.0543 2.80591 48.2904L5.69035 35.7305L5.69014 35.7302Z" fill="#EEF3F7"/>
<path d="M5.69011 35.7302L6.13589 35.8585L8.61986 39.396L5.9353 39.4759L7.58358 40.3635L3.6322 48.5798C3.35459 48.4871 3.07874 48.3913 2.80579 48.2903L5.69022 35.7304V35.7302H5.69011Z" fill="white"/>
<path d="M5.86423 27.8233L6.27666 27.8098L6.40932 27.3648L6.79769 26.998C7.05434 25.1704 7.13022 22.3264 5.21249 22.4083C5.21249 22.4083 5.03947 20.3343 1.58063 20.7409C-1.87842 21.1475 -3.44152 23.2599 -3.25508 25.0223C-3.06884 26.7847 -3.144 26.9979 -3.144 26.9979L-2.75562 27.365L-2.69688 27.8715L-2.35754 27.851C-2.35754 27.851 -2.25141 27.1732 -2.14467 26.8751C-2.03823 26.5771 -2.07126 25.9737 -2.07126 25.9737C-2.07126 25.9737 2.01432 26.2199 3.11844 24.8915C3.80032 24.071 5.36652 22.6494 5.4454 24.6184C5.46873 25.2021 5.23934 26.0771 5.67861 26.714C6.11788 27.351 5.86485 27.8239 5.86485 27.8239L5.86423 27.8233Z" fill="#666666"/>
<path d="M2.80533 48.2901L3.02688 47.326L2.27645 37.8476L2.68527 37.6825L2.24817 37.223H1.59581L1.14746 37.6715L1.56825 37.8475L0.836304 47.4027L0.854162 47.4801C1.49082 47.7738 2.14132 48.0446 2.80523 48.2903V48.29H2.80533V48.2901Z" fill="#0F7986"/>
<path d="M8.79062 45.9699C8.03152 45.8459 7.52246 45.1636 7.65357 44.4453C7.78468 43.7275 8.50631 43.2457 9.26499 43.3695C10.0243 43.4936 10.5333 44.1762 10.4022 44.8943C10.2713 45.6123 9.54971 46.0938 8.79062 45.9699Z" fill="#FEFEFE"/>
<path d="M8.80444 45.8943C8.08963 45.7775 7.61031 45.1349 7.73347 44.4586C7.85694 43.7824 8.53665 43.3287 9.25125 43.4455C9.96606 43.5623 10.4454 44.2053 10.3222 44.8814C10.1988 45.5577 9.51936 46.0111 8.80444 45.8943Z" fill="#0F7986"/>
<path d="M8.90408 45.3474C8.50868 45.2826 8.24336 44.927 8.3116 44.5531C8.38015 44.1789 8.75624 43.9281 9.15133 43.9927C9.54693 44.0575 9.81224 44.4128 9.74411 44.787C9.67587 45.1609 9.29968 45.412 8.90408 45.3474Z" fill="#EBECEC"/>
<path d="M8.98962 44.0662L9.30914 44.1183L9.48083 43.1774L9.16151 43.1254L8.98962 44.0662Z" fill="#FEFEFE"/>
<path d="M8.86547 45.341C8.49155 45.2798 8.24048 44.9435 8.30521 44.5897C8.36974 44.236 8.72518 43.9985 9.0992 44.0598C9.47312 44.121 9.72419 44.4573 9.65946 44.811C9.59473 45.1648 9.23919 45.4023 8.86527 45.341H8.86547Z" fill="#FEFEFE"/>
<path d="M5.69416 35.5614C6.31048 35.577 7.50194 35.7358 8.41878 36.7909C9.31622 37.8234 9.94525 39.72 9.47459 43.1969L9.12038 43.1546C9.57586 39.7895 8.98752 37.9777 8.14283 37.0056C7.31776 36.056 6.24183 35.9128 5.68549 35.8987L5.69385 35.5614H5.69416Z" fill="#4D4D4D"/>
<path d="M23.0577 33.6211L22.5283 36.1378L20.7544 36.7148L21.5424 48.4735C24.1469 47.5682 26.5588 46.2862 28.7045 44.6973L28.8684 36.419L27.7354 36.0819L27.1581 33.5148L23.0572 33.6214L23.0577 33.6211Z" fill="#F0BA7D"/>
<path d="M20.3521 41.0851C23.305 42.4396 26.3427 42.7236 29.5405 41.1616L29.5135 44.0721C26.8398 46.2174 23.7093 47.8695 20.2795 48.8783L20.3521 41.0853V41.0851Z" fill="#21D0C3"/>
<path d="M28.3056 36.2732L33.4498 37.6006C33.9607 37.7497 34.4504 37.9513 34.8628 38.2182C32.5178 41.7721 29.2555 44.7274 25.3898 46.79L28.306 36.2731H28.3056V36.2732Z" fill="#EEF3F7"/>
<path d="M28.2567 36.239L28.9347 36.4974L31.2467 39.7813L28.5367 39.7401L30.2163 40.5905L26.3616 46.2456C26.0394 46.4351 25.7124 46.6183 25.3813 46.7948L28.2568 36.2391H28.2567V36.239Z" fill="white"/>
<path d="M22.2877 36.223L17.1193 37.4643C15.7781 37.8317 14.5731 38.5576 14.5098 39.8975L14.0359 49.9522C15.3777 49.8762 16.6924 49.7056 17.973 49.4469L18.2172 46.3391L18.6134 49.3095C20.7642 48.8215 22.8127 48.0849 24.7232 47.1335L22.2877 36.223Z" fill="white"/>
<path d="M22.3372 36.1895L21.5292 36.4822L19.2816 39.6814L21.9925 39.6852L20.2968 40.5073L24.3893 47.2983C24.503 47.2437 24.6153 47.1873 24.7281 47.1312L22.3372 36.1895Z" fill="#EEF3F7"/>
<path d="M19.5595 27.5861C19.4732 28.4106 19.6478 30.242 20.7054 30.1723C20.7054 30.1723 22.2275 34.369 25.1583 34.8442C27.6885 34.4067 29.2275 30.606 29.3445 30.2442C29.6929 30.3569 30.6681 28.8219 29.9207 27.5662C29.7063 27.2061 29.099 27.4978 29.099 27.4978L29.0524 26.4493C25.0542 26.8167 22.561 23.1585 22.561 23.1585C21.0367 24.7267 20.6701 25.622 20.5071 27.5725C20.5071 27.5725 20.2208 27.4041 19.9032 27.3978C19.8076 27.396 19.6845 27.4747 19.5595 27.5861Z" fill="#FED298"/>
<path d="M22.5283 36.1375L23.0464 33.6771C21.5461 32.2798 20.7636 30.1722 20.7636 30.1722C19.7413 30.28 19.3308 27.6149 20.0186 27.5218C20.3333 27.4793 20.5437 27.5725 20.5437 27.5725C20.6986 25.513 21.118 24.8864 22.5608 23.1585C22.5608 23.1585 25.0814 27.1699 29.0765 26.8025L29.1337 27.6674C29.3226 27.4917 29.6678 27.3268 29.9555 27.7742C30.4233 28.5024 29.8112 30.1574 29.2447 30.2581C29.1643 30.5133 28.5336 32.3959 27.1973 33.6861L27.7359 36.0814C29.235 36.5407 30.6804 36.8955 32.1317 37.2604C31.3946 33.0103 30.9721 28.4109 30.0922 24.4848C29.2473 20.7176 24.6303 19.6638 21.9755 21.3369C21.9755 21.3369 19.6862 22.2096 19.2681 25.1036C18.8503 27.9977 19.0103 28.2766 19.0103 28.2766L18.2727 37.1876C19.6405 36.859 21.2243 36.5621 22.5286 36.1376L22.5283 36.1375Z" fill="#666666"/>
<path d="M21.6747 46.8613L22.2745 46.7488C22.5289 46.701 22.74 46.5591 22.8743 46.3687C23.0088 46.1787 23.067 45.9399 23.0161 45.6988L22.3115 42.3394C22.0454 41.0714 20.9971 40.4248 19.7988 40.2816C19.3396 40.2266 18.8584 40.2466 18.3921 40.3342C17.9256 40.4215 17.473 40.5768 17.0715 40.7933C16.0247 41.3571 15.3192 42.3322 15.5854 43.602L16.2907 46.962C16.341 47.203 16.4915 47.4023 16.6924 47.5297H16.6928C16.894 47.6569 17.1458 47.7118 17.4003 47.6642L17.9993 47.5515L17.9503 47.3182L17.351 47.4309C17.1644 47.4656 16.9792 47.4255 16.8319 47.3322C16.6844 47.2388 16.5744 47.0925 16.5371 46.9159L15.8322 43.5562C15.5907 42.404 16.2367 41.5159 17.1948 41.0002C17.5732 40.796 18.0001 40.6498 18.441 40.5671C18.8813 40.4847 19.3354 40.4656 19.7676 40.5174C20.8642 40.6485 21.8231 41.2359 22.0644 42.386L22.7696 45.746C22.8066 45.9225 22.7636 46.0975 22.6651 46.237C22.5663 46.3766 22.4117 46.4806 22.225 46.5156L21.6254 46.6281L21.6744 46.8617L21.6747 46.8613Z" fill="#21D0C3"/>
<path d="M22.5016 42.8375L22.3941 42.3241C22.1198 41.017 21.041 40.351 19.8092 40.2035C19.341 40.1476 18.8508 40.1674 18.3758 40.2568C17.9008 40.3457 17.4398 40.504 17.0303 40.7246C15.9537 41.3045 15.2285 42.3086 15.5034 43.6179L15.6111 44.1312L16.0224 44.0537L15.9147 43.5406C15.6812 42.4276 16.3079 41.5685 17.2359 41.0687C17.6069 40.8692 18.0252 40.7258 18.4572 40.6445C18.8893 40.5637 19.334 40.5451 19.7578 40.5956C20.8204 40.7228 21.7491 41.2905 21.9823 42.4013L22.0901 42.9146L22.5014 42.8373L22.5016 42.8375Z" fill="#4D4D4D"/>
<path d="M17.5245 47.692L17.8453 47.6317C17.9257 47.7173 18.05 47.7613 18.177 47.7375C18.3679 47.7017 18.492 47.5262 18.4541 47.3459C18.4162 47.1656 18.2309 47.0482 18.0403 47.0844C17.913 47.1082 17.8156 47.1937 17.7757 47.3017L17.4551 47.3619L17.5247 47.6923L17.5245 47.692Z" fill="#076673"/>
<path d="M21.9294 46.8649L21.6091 46.9252C21.5694 47.0333 21.4719 47.1188 21.3445 47.1427C21.1541 47.1782 20.9686 47.0612 20.9307 46.8806C20.8932 46.7003 21.0168 46.5248 21.2075 46.489C21.3348 46.4651 21.4593 46.5095 21.5395 46.5947L21.8599 46.5343L21.9292 46.8649H21.9294Z" fill="#076673"/>
<path d="M18.5712 40.2262L18.4485 39.6435L18.2057 39.6891L17.9631 39.7347L18.0865 40.323C18.1791 40.2974 18.2728 40.2759 18.3677 40.2582C18.4354 40.2456 18.503 40.2349 18.5712 40.2265V40.2262Z" fill="#666666"/>
<path d="M18.0462 47.3675C18.1041 47.3567 18.1415 47.3037 18.1301 47.2491C18.1188 47.1943 18.0627 47.159 18.005 47.1695C17.9471 47.1803 17.9097 47.2336 17.9211 47.2882C17.9325 47.3428 17.9885 47.3783 18.0462 47.3673V47.3675Z" fill="#0F7986"/>
<path d="M21.2164 46.7715C21.2741 46.7607 21.3114 46.7074 21.3004 46.6531C21.2884 46.5985 21.2326 46.5633 21.1747 46.5737C21.117 46.5848 21.0797 46.6375 21.0911 46.6926C21.1023 46.7471 21.1584 46.7822 21.2164 46.7715Z" fill="#0F7986"/>
<path d="M21.5369 36.4961C21.5258 36.4961 17.7424 36.5258 18.3814 39.6573L18.0297 39.7209C17.3092 36.1909 21.521 36.1583 21.5329 36.1578L21.5369 36.4961Z" fill="#4D4D4D"/>
<path d="M29.0878 36.1741C29.7051 36.1897 30.8989 36.3487 31.8171 37.4057C32.3987 38.075 32.8677 39.1067 32.9988 40.6949C32.8894 40.8232 32.7786 40.9503 32.6665 41.0766C32.5869 39.3665 32.1251 38.293 31.541 37.6208C30.7143 36.6694 29.6368 36.5263 29.0795 36.5119L29.0878 36.1741Z" fill="#4D4D4D"/>
<path d="M0.729474 5.19199H14.0371C14.8565 5.19199 15.527 5.82617 15.527 6.60136V14.8858C15.527 15.6609 14.8566 16.2952 14.0371 16.2952H3.28974C2.64007 17.5442 -0.502654 18.1238 -0.502654 18.1238C-0.502654 18.1238 0.479229 17.3856 1.03278 16.2952H0.729474C-0.0899145 16.2952 -0.760437 15.661 -0.760437 14.8858V6.60136C-0.760437 5.82617 -0.0899145 5.19199 0.729474 5.19199Z" fill="#FF5B62"/>
<path d="M17.665 6.38126C22.0868 6.38126 25.6712 9.07979 25.6712 12.4085C25.6712 14.3202 24.489 16.0236 22.6445 17.1278C23.0773 18.5257 24.4146 19.5311 24.4146 19.5311C24.4146 19.5311 21.701 19.0303 20.7959 17.957C19.834 18.2653 18.7758 18.4358 17.6647 18.4358C13.243 18.4358 9.65833 15.7372 9.65833 12.4085C9.65833 9.07979 13.243 6.38126 17.6647 6.38126H17.665Z" fill="#21D0C3"/>
<path d="M0.700134 7.18896H10.0273V7.7335H0.700134V7.18896ZM0.700134 10.6203H7.52273V11.1648H0.700134V10.6203ZM0.700134 8.90459H10.0273V9.44912H0.700134V8.90459Z" fill="#FEFEFE"/>
<path d="M13.3378 10.4958H22.6649V11.0403H13.3378V10.4958ZM13.3378 13.9273H20.1604V14.4719H13.3378V13.9273ZM13.3378 12.2115H22.6649V12.756H13.3378V12.2115Z" fill="#FEFEFE"/>
</g>
<defs>
<clipPath id="clip0">
<rect width="52.8571" height="50" fill="white" transform="translate(-14)"/>
</clipPath>
</defs>
</svg>
