<svg width="50" height="50" viewBox="0 0 50 50" fill="none" xmlns="http://www.w3.org/2000/svg">
<g clip-path="url(#clip0)">
<circle cx="25" cy="27" r="25" fill="#F9D6CD"/>
<mask id="mask0" mask-type="alpha" maskUnits="userSpaceOnUse" x="0" y="2" width="50" height="50">
<circle cx="25" cy="27" r="25" fill="#F9D6CD"/>
</mask>
<g mask="url(#mask0)">
<path d="M39.1797 45.7715C38.7752 45.7715 38.4473 46.0994 38.4473 46.5039V54.2676C38.4473 54.6722 38.7752 55 39.1797 55C39.5842 55 39.9121 54.6722 39.9121 54.2676V46.5039C39.9121 46.0994 39.5842 45.7715 39.1797 45.7715Z" fill="#2DADE3"/>
<path d="M34.0527 54.2676C34.0527 54.6722 34.3807 55 34.7852 55C35.1896 55 35.5176 54.6722 35.5176 54.2676V46.5039C35.5176 46.0994 35.1897 45.7715 34.7852 45.7715C34.3807 45.7715 34.0527 46.0994 34.0527 46.5039V54.2676Z" fill="#49C9FF"/>
<path d="M39.9121 40.6445C42.2007 40.6445 44.0625 38.7827 44.0625 36.4941C44.0625 36.0896 44.3904 35.7617 44.7949 35.7617C45.1994 35.7617 45.5273 36.0896 45.5273 36.4941C45.5273 39.5904 43.0084 42.1094 39.9121 42.1094H37.7148C37.3103 42.1094 36.9824 41.7815 36.9824 41.377C36.9824 40.9724 37.3103 40.6445 37.7148 40.6445H39.9121Z" fill="#2DADE3"/>
<path d="M15.7422 45.7715C15.3377 45.7715 15.0098 46.0994 15.0098 46.5039V54.2676C15.0098 54.6722 15.3377 55 15.7422 55C16.1467 55 16.4746 54.6722 16.4746 54.2676V46.5039C16.4746 46.0994 16.1467 45.7715 15.7422 45.7715Z" fill="#FFA754"/>
<path d="M10.6152 54.2676C10.6152 54.6722 10.9432 55 11.3477 55C11.7521 55 12.0801 54.6722 12.0801 54.2676V46.5039C12.0801 46.0994 11.7522 45.7715 11.3477 45.7715C10.9432 45.7715 10.6152 46.0994 10.6152 46.5039V54.2676Z" fill="#FFCB63"/>
<path d="M10.6152 40.6445C8.32666 40.6445 6.46484 38.7827 6.46484 36.4941C6.46484 36.0896 6.13691 35.7617 5.73242 35.7617C5.32793 35.7617 5 36.0896 5 36.4941C5 39.5904 7.51895 42.1094 10.6152 42.1094H12.8125C13.217 42.1094 13.5449 41.7815 13.5449 41.377C13.5449 40.9724 13.217 40.6445 12.8125 40.6445H10.6152Z" fill="#FFCB63"/>
<path d="M13.5449 5C13.1404 5 12.8125 5.32793 12.8125 5.73242V9.39453C12.8125 9.79904 13.1404 10.127 13.5449 10.127C13.9494 10.127 14.2773 9.79904 14.2773 9.39453V5.73242C14.2773 5.32793 13.9494 5 13.5449 5Z" fill="#B3B3B3"/>
<path d="M15.0098 17.207C14.6053 17.207 14.2773 16.8791 14.2773 16.4746V14.2773C14.2773 13.8727 13.9494 13.5448 13.5449 13.5448C13.1404 13.5448 12.8125 13.8727 12.8125 14.2773V16.4746C12.8125 16.8791 12.4846 17.207 12.0801 17.207C11.6756 17.207 11.3477 17.535 11.3477 17.9395C11.3477 18.3439 11.6756 18.6719 12.0801 18.6719H15.0098C15.4143 18.6719 15.7422 18.3439 15.7422 17.9395C15.7422 17.535 15.4143 17.207 15.0098 17.207Z" fill="#A8E5FF"/>
<path d="M15.0098 12.1986C15.0098 11.8101 14.8554 11.4375 14.5807 11.1628C14.0087 10.5907 13.0812 10.5907 12.5091 11.1628C12.2344 11.4375 12.0801 11.8101 12.0801 12.1986V13.5449C12.0801 14.3539 12.7359 15.0098 13.5449 15.0098C14.3539 15.0098 15.0098 14.3539 15.0098 13.5449V12.1986Z" fill="#49C9FF"/>
<path d="M12.0801 10.127C12.0801 9.31794 12.7359 8.66211 13.5449 8.66211C14.3539 8.66211 15.0098 9.31794 15.0098 10.127C15.0098 10.936 14.3539 11.5918 13.5449 11.5918C12.7359 11.5918 12.0801 10.936 12.0801 10.127Z" fill="#DBF4FF"/>
<path d="M12.0801 23.0664C11.6762 23.0664 11.3477 22.7379 11.3477 22.334C11.3477 21.9301 11.6762 21.6016 12.0801 21.6016H13.5449C13.9494 21.6016 14.2773 21.2736 14.2773 20.8691C14.2773 20.4646 13.9494 20.1367 13.5449 20.1367H12.0801C10.8685 20.1367 9.88281 21.1224 9.88281 22.334C9.88281 23.5456 10.8685 24.5312 12.0801 24.5312H24.5312C24.9358 24.5312 25.2637 24.2033 25.2637 23.7988C25.2637 23.3943 24.9358 23.0664 24.5312 23.0664H12.0801Z" fill="#DBF4FF"/>
<path d="M39.9121 14.2773C39.5076 14.2773 39.1797 14.6053 39.1797 15.0098C39.1797 19.4522 35.5655 23.0664 31.123 23.0664H25.9961C25.5916 23.0664 25.2637 23.3943 25.2637 23.7988C25.2637 24.2033 25.5916 24.5312 25.9961 24.5312H31.123C36.3732 24.5312 40.6445 20.26 40.6445 15.0098C40.6445 14.6053 40.3166 14.2773 39.9121 14.2773Z" fill="#A8E5FF"/>
<path d="M22.3339 33.5645C21.9295 33.5645 21.6016 33.8923 21.6016 34.2968V50.2028C21.6016 51.7317 20.6233 53.089 19.1728 53.5725C18.7891 53.7004 18.5817 54.1151 18.7096 54.4989C18.8375 54.8827 19.2524 55.0901 19.636 54.9622L22.5655 53.9857C22.8646 53.8859 23.0663 53.6061 23.0663 53.2908V34.2968C23.0663 33.8923 22.7384 33.5645 22.3339 33.5645Z" fill="#FF6B8A"/>
<path d="M28.1934 33.5645C28.5979 33.5645 28.9258 33.8923 28.9258 34.2968V50.2028C28.9258 51.7317 29.9041 53.089 31.3545 53.5725C31.7383 53.7004 31.9456 54.1151 31.8178 54.4989C31.6898 54.8827 31.2749 55.0901 30.8913 54.9622L27.9618 53.9857C27.6627 53.8859 27.461 53.6061 27.461 53.2908V34.2968C27.461 33.8923 27.7889 33.5645 28.1934 33.5645Z" fill="#FF4996"/>
<path d="M25.0053 44.2499C25.1572 44.8572 25.7028 45.2832 26.3288 45.2832C26.9852 45.2832 27.5486 44.8157 27.6696 44.1704L29.0039 37.054C29.3439 35.2407 27.9528 33.5645 26.1078 33.5645C24.1909 33.5645 22.7844 35.3659 23.2493 37.2256L25.0053 44.2499Z" fill="#7DD9FF"/>
<path d="M25.2637 44.0825C25.2637 44.7456 24.7261 45.2832 24.0629 45.2832C23.4851 45.2832 22.9892 44.8717 22.8828 44.3037L21.3117 35.9248C21.0817 34.6982 22.0227 33.5645 23.2706 33.5645C24.3714 33.5645 25.2637 34.4568 25.2637 35.5575V44.0825Z" fill="#A8E5FF"/>
<path d="M28.6803 32.831C26.9159 31.5077 24.4394 33.0132 24.802 35.1887L24.8925 35.7318C25.1067 37.017 26.2897 38.0337 27.4238 37.3923C28.4177 36.8303 29.1709 35.8923 29.4903 34.7716C29.7013 34.0315 29.2959 33.2927 28.6803 32.831Z" fill="#FF4996"/>
<path d="M21.5127 32.9209C21.1006 33.333 20.8429 33.8979 20.9622 34.4684C21.2021 35.616 21.8897 36.5991 22.834 37.2268C24.018 38.0139 25.2637 36.8065 25.2637 35.3847V34.4746C25.2637 32.517 22.8969 31.5367 21.5127 32.9209Z" fill="#FF6B8A"/>
<path d="M29.1236 22.7759C28.5681 22.2204 27.7194 22.0827 27.0167 22.434L26.0525 22.9161C25.5356 23.1746 25.095 23.5635 24.7745 24.0443L24.0937 25.0655C23.0055 26.6977 22.8754 28.7879 23.7527 30.5426L24.513 32.0631C24.9731 32.9832 25.9135 33.5645 26.9422 33.5645C28.4422 33.5645 29.6582 32.3485 29.6582 30.8485V24.0666C29.6582 23.5825 29.4659 23.1182 29.1236 22.7759Z" fill="#FF6B8A"/>
<path d="M23.5107 22.434C22.808 22.0827 21.9593 22.2204 21.4037 22.7759C21.0614 23.1182 20.8691 23.5825 20.8691 24.0666V31.3672C20.8691 32.5807 21.8529 33.5645 23.0664 33.5645C24.2799 33.5645 25.2637 32.5807 25.2637 31.3672V24.8226C25.2637 23.8959 24.7401 23.0488 23.9112 22.6343L23.5107 22.434Z" fill="#FF8D7E"/>
<path d="M22.941 22.3631C22.8964 22.5468 22.9307 22.7407 23.0356 22.898L23.412 23.4626C24.2929 24.784 26.2345 24.784 27.1154 23.4626L27.4917 22.8981C27.5966 22.7408 27.6309 22.5469 27.5864 22.3631C27.5128 22.0595 27.2409 21.8457 26.9285 21.8457H23.5988C23.2864 21.8457 23.0146 22.0595 22.941 22.3631Z" fill="white"/>
<path d="M21.358 21.8457C20.2793 21.8457 19.4049 22.7202 19.4049 23.7989L19.4043 43.4521C19.4043 44.4634 20.2241 45.2832 21.2354 45.2832C22.2466 45.2832 23.0664 44.4634 23.0664 43.4522V23.5541C23.0664 22.6106 22.3015 21.8457 21.358 21.8457Z" fill="#DBF4FF"/>
<path d="M29.1693 21.8458C29.1693 21.8457 29.1694 21.8457 29.1694 21.8457C30.2481 21.8457 31.1225 22.7202 31.1225 23.7989L31.123 43.4522C31.123 44.4635 30.3032 45.2833 29.292 45.2833C28.2807 45.2833 27.4609 44.4635 27.4609 43.4523V22.7C27.4609 22.2282 27.8434 21.8458 28.3151 21.8458H29.1693C29.1693 21.8458 29.1693 21.8458 29.1693 21.8458Z" fill="#A8E5FF"/>
<path d="M28.3496 7.68379C27.8436 6.62177 26.4401 5.73242 25.2637 5.73242C24.0873 5.73242 22.6837 6.62177 22.1777 7.68379C22.0717 7.90622 22.0124 8.15517 22.0124 8.41797C22.0124 9.36182 22.7775 10.127 23.7214 10.127H26.8059C27.7498 10.127 28.5149 9.36182 28.5149 8.41797C28.5149 8.15517 28.4556 7.90622 28.3496 7.68379Z" fill="#60312C"/>
<path d="M25.2637 16.3627C25.2637 17.7729 26.4978 18.9704 27.6759 18.1954C28.5572 17.6156 29.2174 16.7271 29.5028 15.6839C29.6967 14.9752 29.291 14.2767 28.6798 13.8692C27.2196 12.8957 25.2637 13.9425 25.2637 15.6974V16.3627Z" fill="#A8E5FF"/>
<path d="M28.0735 11.1424C26.9208 10.1829 25.7534 11.5963 26.2277 13.0191L26.3405 13.3573C26.5722 14.0526 27.2228 14.5215 27.9556 14.5215C28.8959 14.5215 29.6891 13.7313 29.3336 12.8608C29.0591 12.1887 28.6229 11.5998 28.0735 11.1424Z" fill="#85453D"/>
<path d="M25.2637 18.916C26.0088 18.916 26.6241 17.2467 26.7165 15.0866C26.7324 14.7155 26.642 14.3485 26.4759 14.0162C25.8322 12.7289 24.2059 12.297 23.0083 13.0954L22.2792 13.5815C21.3983 14.1687 20.7922 15.194 21.1908 16.1749C21.844 17.7825 23.4215 18.916 25.2637 18.916Z" fill="#DBF4FF"/>
<path d="M25.2637 10.127C23.8625 10.127 22.6145 10.7827 21.8098 11.804C20.8085 13.075 22.1808 14.5215 23.7988 14.5215C25.4168 14.5215 26.8193 13.176 26.3648 11.6231C26.0963 10.7059 25.7025 10.127 25.2637 10.127Z" fill="#A45E43"/>
<path d="M14.5215 39.4238C13.929 39.4238 13.3936 39.7769 13.1602 40.3214L12.5754 41.6861C12.2541 42.4358 12.1872 43.2703 12.385 44.0617L12.5216 44.6079C13.123 47.0135 16.1297 48.6124 16.4499 46.1535C16.4662 46.0285 16.4746 45.901 16.4746 45.7715V41.377C16.4746 40.2982 15.6002 39.4238 14.5215 39.4238Z" fill="#FFA754"/>
<path d="M12.5684 39.4238C11.4896 39.4238 10.6152 40.2982 10.6152 41.377V45.7715C10.6152 48.3132 13.5449 46.6407 13.5449 44.099V40.4004C13.5449 39.8611 13.1077 39.4238 12.5684 39.4238Z" fill="#FFCB63"/>
<path d="M15.2425 31.1764C14.3386 30.5327 13.2314 31.2617 12.7352 32.2543C12.3228 33.079 12.3228 34.0499 12.7352 34.8746C13.2314 35.8672 14.3387 36.5962 15.2425 35.9525C15.9883 35.4214 16.4746 34.5497 16.4746 33.5645C16.4746 32.5792 15.9883 31.7075 15.2425 31.1764Z" fill="#A45E43"/>
<path d="M10.6152 33.5645C10.6152 34.1477 10.7857 34.6911 11.0794 35.1477C11.955 36.5083 13.5449 35.1825 13.5449 33.5645C13.5449 31.9464 11.955 30.6206 11.0794 31.9812C10.7857 32.4378 10.6152 32.9812 10.6152 33.5645Z" fill="#C27749"/>
<path d="M37.959 39.4238C37.3665 39.4238 36.8311 39.7769 36.5977 40.3214L36.0129 41.6861C35.6916 42.4358 35.6247 43.2703 35.8225 44.0617L35.9591 44.6079C36.5605 47.0135 39.5672 48.6124 39.8874 46.1535C39.9037 46.0285 39.9121 45.901 39.9121 45.7715V41.377C39.9121 40.2982 39.0377 39.4238 37.959 39.4238Z" fill="#2DADE3"/>
<path d="M36.0059 39.4238C34.9271 39.4238 34.0527 40.2982 34.0527 41.377V45.7715C34.0527 48.3132 36.9824 46.6407 36.9824 44.099V40.4004C36.9824 39.8611 36.5452 39.4238 36.0059 39.4238Z" fill="#49C9FF"/>
<path d="M38.68 31.1764C37.7761 30.5327 36.6689 31.2617 36.1727 32.2543C35.7603 33.079 35.7603 34.0499 36.1727 34.8746C36.6689 35.8672 37.7762 36.5962 38.68 35.9525C39.4258 35.4214 39.9121 34.5497 39.9121 33.5645C39.9121 32.5792 39.4258 31.7075 38.68 31.1764Z" fill="#FFB4A9"/>
<path d="M34.0527 33.5645C34.0527 34.1477 34.2232 34.6911 34.5169 35.1477C35.3925 36.5083 36.9824 35.1825 36.9824 33.5645C36.9824 31.9464 35.3925 30.6206 34.5169 31.9812C34.2232 32.4378 34.0527 32.9812 34.0527 33.5645Z" fill="#FFD9D4"/>
</g>
</g>
<defs>
<clipPath id="clip0">
<rect width="50" height="50" fill="white"/>
</clipPath>
</defs>
</svg>
