<svg width="50" height="50" viewBox="0 0 50 50" fill="none" xmlns="http://www.w3.org/2000/svg">
<mask id="mask0" mask-type="alpha" maskUnits="userSpaceOnUse" x="0" y="0" width="50" height="50">
<circle cx="25" cy="25" r="25" fill="#F9D6CD"/>
</mask>
<g mask="url(#mask0)">
<circle cx="25" cy="25" r="25" fill="#F9D6CD"/>
<path d="M4.50907 54.5754C4.34169 54.5754 4.17157 54.5474 4.00497 54.4883C3.21962 54.2099 2.80878 53.3475 3.0872 52.5623C3.68378 50.8795 4.78456 49.6269 6.27059 48.9398C8.0743 48.1058 10.2647 48.1689 12.7807 49.1272C15.3041 50.0881 16.5348 48.7607 18.8629 45.9101L18.9487 45.8049C19.4759 45.1597 20.4262 45.0637 21.0715 45.5909C21.7169 46.1182 21.8126 47.0685 21.2855 47.7138L21.2 47.8186C20.0264 49.2557 18.9177 50.6131 17.4873 51.5039C15.7142 52.6082 13.8235 52.7532 11.7068 51.9469C10.0031 51.2978 8.56102 51.2052 7.5369 51.6786C6.61258 52.1059 6.1535 52.9433 5.93114 53.5704C5.71161 54.189 5.12997 54.5754 4.50907 54.5754Z" fill="#EDA751"/>
<path opacity="0.2" d="M21.0281 48.0285V45.559C20.3842 45.0697 19.4642 45.1737 18.9485 45.8048L18.8627 45.91C16.5346 48.7607 15.3039 50.088 12.7806 49.1271C12.6949 49.0944 12.6105 49.0654 12.5257 49.0349C12.4886 50.2309 12.4715 51.318 12.4636 52.197C14.278 52.7039 15.9281 52.4748 17.487 51.5039C18.8476 50.6566 19.9172 49.3871 21.0281 48.0285Z" fill="#A35F00"/>
<path d="M12.0186 46.3096C11.0487 46.3096 10.1048 46.1585 9.2159 45.8517C7.10936 45.1244 5.53182 43.5872 4.77391 41.523C4.31444 40.2716 4.95653 38.8846 6.20799 38.4251C7.45897 37.9656 8.84637 38.6075 9.30584 39.8592C9.5615 40.5554 10.0612 41.0362 10.7913 41.2882C12.0706 41.7296 13.7915 41.4014 15.3946 40.4093C16.5282 39.708 18.0158 40.058 18.7174 41.1917C19.419 42.3253 19.0687 43.813 17.935 44.5146C16.0214 45.6986 13.9681 46.3096 12.0186 46.3096Z" fill="#EDA751"/>
<path d="M18.7175 41.1916C18.0158 40.058 16.5283 39.7079 15.3946 40.4092C13.7916 41.4013 12.0706 41.7295 10.7913 41.2881C10.4357 41.1654 10.1353 40.988 9.89062 40.7583C8.82803 42.1657 7.08409 43.1312 5.84512 43.4629C6.68897 44.5521 7.83828 45.3761 9.21592 45.8517C10.1047 46.1585 11.0487 46.3096 12.0185 46.3096C13.9681 46.3096 16.0214 45.6987 17.9349 44.5146C19.0687 43.8129 19.419 42.3253 18.7175 41.1916Z" fill="#7CC5E6"/>
<path d="M29.5232 61C29.4692 61 29.4149 60.9983 29.3601 60.9946C28.03 60.9058 27.0236 59.7555 27.1124 58.4253C27.3617 54.6905 26.954 52.4781 26.568 51.2798C26.1594 50.0108 26.8568 48.6508 28.1257 48.2422C29.395 47.8333 30.7547 48.5309 31.1633 49.7999C31.9127 52.1266 32.1704 55.1368 31.9294 58.7469C31.8442 60.0222 30.7831 61 29.5232 61Z" fill="#EDA751"/>
<path d="M21.2332 61C19.9732 61 18.9122 60.0224 18.827 58.7468C18.5861 55.1367 18.8439 52.1265 19.5931 49.7998C20.0019 48.5309 21.3621 47.8338 22.6307 48.2421C23.8996 48.6507 24.597 50.0107 24.1884 51.2797C23.8025 52.478 23.3949 54.6904 23.6441 58.4252C23.7329 59.7554 22.7264 60.9057 21.3963 60.9945C21.3416 60.9981 21.2871 61 21.2332 61Z" fill="#EDA751"/>
<path d="M37.2619 45.5999C35.8256 45.5999 34.4053 45.2798 33.0605 44.6445C31.8551 44.075 31.3396 42.6363 31.9089 41.4309C32.4783 40.2255 33.9171 39.7098 35.1226 40.2793C37.4101 41.3603 40.0963 40.5993 41.8062 38.3859C42.6208 37.3309 44.1368 37.1363 45.192 37.9512C46.247 38.7662 46.4416 40.2823 45.6267 41.3372C44.1693 43.2238 42.1606 44.6028 39.9701 45.2203C39.0711 45.4737 38.1633 45.5999 37.2619 45.5999Z" fill="#EDA751"/>
<path d="M40.8687 39.3747C39.2053 40.8018 37.0261 41.1788 35.1226 40.2793C33.917 39.7098 32.4783 40.2255 31.9089 41.4309C31.3395 42.6363 31.855 44.075 33.0605 44.6446C34.4053 45.2798 35.8257 45.6 37.262 45.6C38.1634 45.6 39.0711 45.4739 39.9703 45.2203C41.5548 44.7736 43.0432 43.9266 44.2977 42.7789C42.1391 42.25 41.1909 40.5821 40.8687 39.3747Z" fill="#7CC5E6"/>
<path opacity="0.2" d="M31.1634 49.7998C30.7548 48.5308 29.395 47.8332 28.1258 48.2421C26.8568 48.6508 26.1595 50.0107 26.5681 51.2797C26.8587 52.182 27.1614 53.6598 27.1869 55.9292C28.9068 55.7047 30.5208 55.1652 31.9606 54.3745C31.852 52.6423 31.5859 51.1122 31.1634 49.7998Z" fill="#A35F00"/>
<path opacity="0.2" d="M22.6306 48.2421C21.3619 47.8338 20.0018 48.5309 19.593 49.7998C19.1704 51.1122 18.9043 52.6422 18.7957 54.3745C20.2355 55.1653 21.8495 55.7048 23.5694 55.9292C23.5949 53.6598 23.8977 52.182 24.1882 51.2797C24.5969 50.0108 23.8996 48.6508 22.6306 48.2421Z" fill="#A35F00"/>
<path d="M25.3777 54.0947C31.5267 54.0947 36.5114 49.4628 36.5114 43.7491C36.5114 38.0353 31.5267 33.4034 25.3777 33.4034C19.2287 33.4034 14.2439 38.0353 14.2439 43.7491C14.2439 49.4628 19.2287 54.0947 25.3777 54.0947Z" fill="#FCD690"/>
<path opacity="0.15" d="M23.7523 53.984C18.6646 50.6437 20.2414 43.7976 21.1051 40.8036V34.193C17.077 35.7501 14.2446 39.4417 14.2446 43.7486C14.2446 48.949 18.3742 53.2526 23.7523 53.984Z" fill="#C17A00"/>
<path opacity="0.1" d="M15.3946 40.4093C14.3391 41.0625 13.2333 41.4258 12.2353 41.4732C12.0991 42.9063 11.9939 44.5373 11.9225 46.3076C11.9546 46.308 11.9865 46.3095 12.0186 46.3095C13.9682 46.3095 16.0215 45.6986 17.935 44.5145C19.0686 43.8129 19.4189 42.3252 18.7175 41.1916C18.0158 40.058 16.5282 39.7079 15.3946 40.4093Z" fill="black"/>
<path d="M22.3355 32.682V54.1092C22.3355 55.0644 21.3807 55.7232 20.4872 55.3858C18.8614 54.772 16.6506 53.7848 15.1912 53.1018C14.317 52.6926 13.7619 51.813 13.7695 50.8479C13.8043 46.4296 14.0683 36.2141 16.0769 34.193L22.3355 32.682Z" fill="#7CC5E6"/>
<path opacity="0.1" d="M35.1226 40.2792C33.917 39.7097 32.4783 40.2254 31.9089 41.4308C31.3395 42.6362 31.855 44.0749 33.0605 44.6445C34.4053 45.2797 35.8257 45.5999 37.262 45.5999C37.7726 45.5999 38.2852 45.5579 38.7972 45.4768C38.7274 44.0108 38.6338 42.6507 38.5175 41.4354C38.491 41.158 38.4634 40.8899 38.435 40.6303C37.337 40.8857 36.1867 40.7821 35.1226 40.2792Z" fill="black"/>
<path d="M28.4209 32.682V54.1092C28.4209 55.0644 29.3756 55.7232 30.2692 55.3858C31.895 54.772 34.1058 53.7848 35.5652 53.1018C36.4394 52.6926 36.9945 51.813 36.9869 50.8479C36.9522 46.4296 36.688 36.2141 34.6794 34.193L28.4209 32.682Z" fill="#7CC5E6"/>
<path d="M33.6383 44.8209H31.5485C31.1439 44.8209 30.8161 44.4931 30.8161 44.0885C30.8161 43.6839 31.1439 43.3561 31.5485 43.3561H33.6383C34.0429 43.3561 34.3708 43.6839 34.3708 44.0885C34.3708 44.4931 34.0429 44.8209 33.6383 44.8209Z" fill="white"/>
<path d="M22.3357 53.4908C22.1393 53.4908 21.9436 53.4124 21.7994 53.2573C21.5238 52.9613 21.5405 52.4979 21.8366 52.2222C22.9983 51.141 23.8078 49.8164 24.2427 48.2854C24.598 47.0345 24.6459 45.8971 24.6459 44.9494C24.6459 44.5448 24.9737 44.217 25.3783 44.217C25.7829 44.217 26.1107 44.5448 26.1107 44.9494C26.1107 46.3979 26.1107 50.2453 22.8346 53.2944C22.6934 53.4258 22.5143 53.4908 22.3357 53.4908Z" fill="#7694E4"/>
<path d="M25.3782 45.7812L25.0311 45.5945C24.8638 45.5045 20.9206 43.3406 19.7473 39.0163C19.6413 38.626 19.8719 38.2237 20.2623 38.1177C20.6523 38.0115 21.055 38.2423 21.1609 38.6327C21.9816 41.6572 24.4578 43.4982 25.377 44.0928C26.2952 43.4957 28.7781 41.6442 29.5953 38.6327C29.7012 38.2423 30.1038 38.0115 30.4939 38.1177C30.8843 38.2237 31.1149 38.626 31.009 39.0163C29.8356 43.3406 25.8925 45.5045 25.7252 45.5945L25.3782 45.7812Z" fill="#7694E4"/>
<path d="M18.6027 25.8094C20.7813 23.9814 22.2359 20.9127 19.163 16.3762C16.0658 11.8039 11.4546 10.6578 7.85458 11.0819C6.96708 11.1865 6.22236 11.8113 5.96523 12.6673C4.92246 16.1389 5.25038 20.8791 9.21542 24.7232C13.1494 28.5371 16.4242 27.6376 18.6027 25.8094Z" fill="#EDA751"/>
<path d="M5.82045 13.1984C4.96557 16.6118 5.44897 21.0714 9.21556 24.7231C12.6253 28.029 15.5393 27.7927 17.6741 26.4809C16.2059 16.5141 9.79222 13.8711 5.82045 13.1984Z" fill="#FF91AB"/>
<path d="M32.1537 25.8094C29.9751 23.9814 28.5206 20.9127 31.5934 16.3761C34.6906 11.8039 39.3018 10.6577 42.9018 11.0818C43.7893 11.1864 44.534 11.8112 44.7912 12.6672C45.8339 16.1388 45.506 20.879 41.541 24.7231C37.607 28.5371 34.3322 27.6375 32.1537 25.8094Z" fill="#EDA751"/>
<path d="M44.936 13.1984C45.7909 16.6118 45.3075 21.0714 41.5409 24.7231C38.131 28.029 35.2171 27.7927 33.0823 26.4809C34.5505 16.5141 40.9641 13.8711 44.936 13.1984Z" fill="#FF91AB"/>
<path d="M44.3329 28.5686C44.3329 37.2352 35.8465 41.0311 25.3782 41.0311C14.9099 41.0311 6.42355 37.2352 6.42355 28.5686C6.42355 19.902 14.9099 12.8764 25.3782 12.8764C35.8465 12.8764 44.3329 19.902 44.3329 28.5686Z" fill="#FFDC9C"/>
<path opacity="0.15" d="M15.2573 15.2991C9.94884 18.0799 6.42355 22.9832 6.42355 28.5685C6.42355 36.0186 12.6946 39.8694 21.1052 40.8036C9.03214 33.5921 10.6067 23.8919 15.2573 15.2991Z" fill="#C17A00"/>
<path d="M41.2903 20.0396C40.214 18.6663 38.8856 17.4411 37.359 16.409H13.3974C11.8708 17.4411 10.5424 18.6663 9.46613 20.0396H41.2903Z" fill="#495059"/>
<path d="M16.077 31.6676C17.9722 31.6676 19.5086 30.444 19.5086 28.9346C19.5086 27.4252 17.9722 26.2016 16.077 26.2016C14.1817 26.2016 12.6453 27.4252 12.6453 28.9346C12.6453 30.444 14.1817 31.6676 16.077 31.6676Z" fill="#FF91AB"/>
<path d="M34.6795 31.6676C36.5747 31.6676 38.1111 30.444 38.1111 28.9346C38.1111 27.4252 36.5747 26.2016 34.6795 26.2016C32.7842 26.2016 31.2478 27.4252 31.2478 28.9346C31.2478 30.444 32.7842 31.6676 34.6795 31.6676Z" fill="#FF91AB"/>
<path d="M18.0771 26.9402C17.6725 26.9402 17.3447 26.6123 17.3447 26.2078V24.9959C17.3447 24.5913 17.6725 24.2634 18.0771 24.2634C18.4817 24.2634 18.8095 24.5913 18.8095 24.9959V26.2078C18.8095 26.6123 18.4816 26.9402 18.0771 26.9402Z" fill="#495059"/>
<path d="M32.6792 26.9402C32.2746 26.9402 31.9468 26.6123 31.9468 26.2078V24.9959C31.9468 24.5913 32.2746 24.2634 32.6792 24.2634C33.0838 24.2634 33.4117 24.5913 33.4117 24.9959V26.2078C33.4117 26.6123 33.0837 26.9402 32.6792 26.9402Z" fill="#495059"/>
<path d="M25.3781 27.8708C24.4285 27.8708 23.5257 27.4595 22.9011 26.7425C22.6353 26.4376 22.6672 25.975 22.9722 25.7092C23.2772 25.4433 23.7398 25.4753 24.0055 25.7803C24.352 26.1779 24.8523 26.4059 25.3782 26.4059C25.9041 26.4059 26.4045 26.1779 26.751 25.7802C27.0168 25.4754 27.4793 25.4435 27.7844 25.7092C28.0893 25.9751 28.1211 26.4377 27.8554 26.7426C27.2305 27.4595 26.3277 27.8708 25.3781 27.8708Z" fill="#495059"/>
<path d="M11.2376 29.348C10.9094 29.348 10.6108 29.1258 10.5275 28.7929C10.4295 28.4005 10.668 28.0029 11.0605 27.9047C12.0028 27.6693 14.2486 27.5014 15.3426 27.646C15.7437 27.699 16.0258 28.067 15.9728 28.468C15.9198 28.8691 15.5509 29.1506 15.1507 29.0982C14.2588 28.9803 12.1956 29.131 11.4157 29.3259C11.3561 29.3409 11.2965 29.348 11.2376 29.348Z" fill="#495059"/>
<path d="M12.3307 33.4144C12.1061 33.4144 11.8846 33.3115 11.7409 33.1169C11.5007 32.7915 11.5697 32.333 11.8952 32.0927C12.6766 31.5159 14.689 30.5048 15.7556 30.2217C16.1468 30.1183 16.5477 30.3508 16.6515 30.7416C16.7553 31.1327 16.5225 31.5336 16.1316 31.6375C15.262 31.8684 13.4117 32.794 12.7651 33.2713C12.6343 33.3679 12.4818 33.4144 12.3307 33.4144Z" fill="#495059"/>
<path d="M39.5187 29.348C39.4598 29.348 39.4001 29.3409 39.3405 29.3259C38.5607 29.1309 36.4973 28.9803 35.6055 29.0982C35.2056 29.1505 34.8364 28.8691 34.7834 28.468C34.7304 28.067 35.0126 27.699 35.4136 27.646C36.5074 27.5014 38.7533 27.6692 39.6957 27.9047C40.0882 28.0029 40.3268 28.4005 40.2287 28.7929C40.1454 29.1257 39.8468 29.348 39.5187 29.348Z" fill="#495059"/>
<path d="M38.4256 33.4144C38.2744 33.4144 38.1221 33.3678 37.9912 33.2712C37.3447 32.7939 35.4946 31.8684 34.6248 31.6374C34.2339 31.5336 34.0011 31.1326 34.1049 30.7416C34.2087 30.3505 34.6098 30.1182 35.0008 30.2216C36.0674 30.5048 38.0797 31.5158 38.8612 32.0926C39.1866 32.3329 39.2557 32.7914 39.0155 33.1168C38.8718 33.3116 38.6501 33.4144 38.4256 33.4144Z" fill="#495059"/>
<path d="M25.3777 21.6399C28.0275 21.6399 30.1755 19.4918 30.1755 16.8421C30.1755 14.1923 28.0275 12.0442 25.3777 12.0442C22.7279 12.0442 20.5799 14.1923 20.5799 16.8421C20.5799 19.4918 22.7279 21.6399 25.3777 21.6399Z" fill="#DEE2E5"/>
<path opacity="0.1" d="M25.3777 18.7199C26.4148 18.7199 27.2555 17.8792 27.2555 16.8421C27.2555 15.805 26.4148 14.9642 25.3777 14.9642C24.3406 14.9642 23.4999 15.805 23.4999 16.8421C23.4999 17.8792 24.3406 18.7199 25.3777 18.7199Z" fill="black"/>
</g>
</svg>
